Coordinates
version=1
nRows=14
nColumns=40
inDegrees=yes

Units are S.I. units (second, meters, Newtons, ...)
Angles are in degrees.

endheader
time	pelvis_tilt	pelvis_list	pelvis_rotation	pelvis_tx	pelvis_ty	pelvis_tz	hip_flexion_r	hip_adduction_r	hip_rotation_r	knee_angle_r	knee_angle_r_beta	ankle_angle_r	subtalar_angle_r	mtp_angle_r	hip_flexion_l	hip_adduction_l	hip_rotation_l	knee_angle_l	knee_angle_l_beta	ankle_angle_l	subtalar_angle_l	mtp_angle_l	lumbar_extension	lumbar_bending	lumbar_rotation	arm_flex_r	arm_add_r	arm_rot_r	elbow_flex_r	pro_sup_r	wrist_flex_r	wrist_dev_r	arm_flex_l	arm_add_l	arm_rot_l	elbow_flex_l	pro_sup_l	wrist_flex_l	wrist_dev_l
     19.41000000	     -4.34722289	     -3.97218518	     -0.03911395	      0.80409765	      0.93261693	      0.43325724	     25.21935972	     -6.23256734	     -5.98870854	     67.45032118	     67.45032118	      1.73826637	    -14.13567341	      0.28029330	     14.46523396	     -3.28078170	     -4.94465060	     21.28091916	     21.28091916	     13.61370245	     -8.76383775	      0.82819045	     -9.37296209	      6.24152930	      2.44884869	      8.74135914	    -16.27013835	     -7.62477464	     33.16373395	     46.17511922	      0.00000000	      0.00000000	      4.99968729	    -16.63216467	     -6.57296349	     63.33306295	     46.81527114	      0.00000000	      0.00000000
     19.42342857	     -4.34816986	     -4.06183917	     -0.28049966	      0.80379962	      0.93299614	      0.43312321	     26.62368544	     -5.91355996	     -5.76275118	     66.85218433	     66.85218433	      1.95064351	    -14.69523261	      0.36778603	     13.69520394	     -3.34593580	     -5.04755220	     20.81142120	     20.81142120	     13.90343252	     -8.80574582	      0.86201819	     -9.41956795	      6.31914287	      2.47615873	      6.56966886	    -15.66891346	     -7.31955529	     31.81386906	     46.19157740	      0.00000000	      0.00000000	      6.38439489	    -17.00931788	     -7.06942407	     64.41835390	     46.88427188	      0.00000000	      0.00000000
     19.43685714	     -4.27613252	     -4.16507551	     -0.49009418	      0.80359028	      0.93341204	      0.43298562	     27.81296546	     -5.56781353	     -5.57582703	     66.00449415	     66.00449415	      2.16692316	    -15.19122259	      0.55540874	     12.84619851	     -3.43442612	     -5.20002458	     20.34485823	     20.34485823	     14.19636577	     -8.69687596	      0.81144434	     -9.56491128	      6.43761342	      2.52299035	      4.36458351	    -15.09053092	     -6.97048996	     30.59913646	     46.19884207	      0.00000000	      0.00000000	      7.73327302	    -17.34111996	     -7.59628796	     65.73102084	     46.95897972	      0.00000000	      0.00000000
     19.45028571	     -4.19906465	     -4.27208656	     -0.69352236	      0.80337255	      0.93372641	      0.43294702	     28.87049604	     -5.21605439	     -5.45453094	     64.89268984	     64.89268984	      2.41097989	    -15.59266457	      0.86949823	     12.01661065	     -3.54018877	     -5.38590793	     19.91398126	     19.91398126	     14.48311305	     -8.55038618	      0.69930702	     -9.74445931	      6.52665331	      2.55407514	      2.19892957	    -14.50807989	     -6.56905089	     29.49083438	     46.19794083	      0.00000000	      0.00000000	      9.02066674	    -17.65652153	     -8.16519742	     67.13496812	     47.03865518	      0.00000000	      0.00000000
     19.46371429	     -4.20606303	     -4.34862779	     -0.81653896	      0.80310758	      0.93375741	      0.43284362	     29.87020052	     -4.99907988	     -5.52537078	     63.47065072	     63.47065072	      2.65757224	    -15.68979739	      1.07153815	     11.38045508	     -3.59751240	     -5.43852066	     19.63668277	     19.63668277	     14.79326541	     -8.47020745	      0.60670286	     -9.73196311	      6.65313297	      2.04942139	      0.29900236	    -13.74197148	     -6.37665525	     28.76222182	     46.19713660	      0.00000000	      0.00000000	     10.08644942	    -18.41631342	     -8.63261281	     67.85714671	     47.09228147	      0.00000000	      0.00000000
     19.47714286	     -4.09221358	     -4.43913806	     -1.03576351	      0.80291887	      0.93406048	      0.43297461	     30.55822850	     -4.54731370	     -5.37101935	     61.58837964	     61.58837964	      2.93565893	    -16.08687686	      1.56604009	     10.44491580	     -3.68966807	     -5.71342821	     19.05761081	     19.05761081	     15.02634506	     -8.22655751	      0.51068397	    -10.06228611	      6.73189808	      2.53621402	     -1.90852231	    -13.29101233	     -5.97530916	     27.68646700	     46.19464781	      0.00000000	      0.00000000	     11.47445530	    -18.19623223	     -9.25863985	     69.71612194	     47.18165752	      0.00000000	      0.00000000
     19.49057143	     -4.05345451	     -4.50768776	     -1.18871053	      0.80267819	      0.93402284	      0.43304155	     31.19221442	     -4.27697054	     -5.49488990	     59.37715653	     59.37715653	      3.17047832	    -16.03488690	      1.93428022	      9.71789237	     -3.74748379	     -5.87748802	     18.69096228	     18.69096228	     15.33885522	     -8.05517579	      0.32400520	    -10.14283160	      6.85597362	      2.47657451	     -3.80797884	    -12.66236521	     -5.65774574	     26.98852744	     46.18409396	      0.00000000	      0.00000000	     12.54021398	    -18.44210285	     -9.89569909	     71.07057890	     47.26088425	      0.00000000	      0.00000000
     19.50400000	     -4.04717258	     -4.54579218	     -1.33293610	      0.80246112	      0.93382535	      0.43326080	     31.66748419	     -3.99855427	     -5.64494218	     56.73524609	     56.73524609	      3.49930811	    -15.84657711	      2.12568337	      9.03043439	     -3.78454675	     -6.05341886	     18.32139022	     18.32139022	     15.61842792	     -7.85974589	      0.12205877	    -10.22884112	      6.92745621	      2.41251255	     -5.63825409	    -12.04413709	     -5.36238625	     26.44427190	     46.16975984	      0.00000000	      0.00000000	     13.53140546	    -18.61760060	    -10.60079171	     72.51559370	     47.34642263	      0.00000000	      0.00000000
     19.51742857	     -4.07823096	     -4.56959190	     -1.47314577	      0.80217719	      0.93354993	      0.43358037	     31.99261058	     -3.73979603	     -5.90869760	     53.64614417	     53.64614417	      3.75343930	    -15.43408539	      2.10277306	      8.39922542	     -3.81225916	     -6.22903783	     17.96734901	     17.96734901	     15.87291244	     -7.67776135	     -0.07507821	    -10.29967768	      6.98452055	      2.29516145	     -7.34496201	    -11.45186132	     -5.13718408	     26.06144723	     46.15542850	      0.00000000	      0.00000000	     14.40466088	    -18.76650839	    -11.29242612	     73.91305616	     47.42890176	      0.00000000	      0.00000000
     19.53085714	     -4.17990051	     -4.57754008	     -1.60667429	      0.80189109	      0.93306698	      0.43398683	     32.14945563	     -3.49251841	     -6.27639496	     50.04260603	     50.04260603	      3.57817424	    -14.94760390	      0.65028999	      7.84237143	     -3.83847188	     -6.44321983	     17.60059619	     17.60059619	     16.06903579	     -7.41584334	     -0.53123162	    -10.32156966	      7.02466379	      1.92821274	     -9.01021111	    -10.92150426	     -4.77167069	     26.34450023	     46.11323703	      0.00000000	      0.00000000	     14.80309344	    -18.84838032	    -12.62675030	     75.98821658	     47.58196854	      0.00000000	      0.00000000
     19.54428571	     -4.33656115	     -4.60902189	     -1.72309351	      0.80162462	      0.93247363	      0.43448855	     32.20380711	     -3.19900205	     -6.77965610	     46.17256202	     46.17256202	      3.95827316	    -13.96481917	      0.74722255	      7.36756572	     -3.86827999	     -6.51905320	     17.27513588	     17.27513588	     16.33746557	     -7.35754316	     -0.62473444	    -10.20456423	      7.13629222	      1.73862906	    -10.36273053	    -10.38712375	     -4.66295259	     25.93603491	     46.11145569	      0.00000000	      0.00000000	     15.59828307	    -19.11065249	    -12.92229786	     76.78114506	     47.62153966	      0.00000000	      0.00000000
     19.55771429	     -4.37872497	     -4.57271656	     -1.89062845	      0.80154147	      0.93192368	      0.43513206	     31.83300927	     -2.94717818	     -7.36481881	     41.76146288	     41.76146288	      3.41552446	    -12.91177420	     -1.87524956	      6.67998262	     -3.84805421	     -6.79229625	     16.82755505	     16.82755505	     16.52521534	     -7.09194823	     -1.05980207	    -10.31368490	      7.11908249	      1.64756627	    -11.82586669	     -9.93040220	     -4.64071490	     26.31280924	     46.10373197	      0.00000000	      0.00000000	     15.98888957	    -19.03817053	    -13.90371718	     78.89066646	     47.75647510	      0.00000000	      0.00000000
     19.57114286	     -4.49974568	     -4.56833974	     -2.05365576	      0.80148036	      0.93122524	      0.43590879	     31.43901068	     -2.59266650	     -7.98232217	     37.31792372	     37.31792372	      3.76797266	    -11.17774653	     -1.68843007	      6.10717686	     -3.85007122	     -6.91650169	     16.44255422	     16.44255422	     16.79877544	     -6.98370000	     -1.17516310	    -10.28555223	      7.17745556	      1.66236802	    -12.93357960	     -9.49846888	     -4.56953935	     25.95543630	     46.10687438	      0.00000000	      0.00000000	     16.70104504	    -19.10318399	    -14.08949774	     79.73103716	     47.79031875	      0.00000000	      0.00000000
     19.58457143	     -4.64217398	     -4.54036980	     -2.22527667	      0.80155042	      0.93038282	      0.43678714	     30.91600506	     -2.22613963	     -8.68478648	     32.79358006	     32.79358006	      4.02730568	     -9.14135277	     -1.41725615	      5.52858483	     -3.83438034	     -7.11095561	     16.02825418	     16.02825418	     17.06737297	     -6.83913077	     -1.33532490	    -10.19609455	      7.21906569	      1.70135023	    -13.89499179	     -9.08451806	     -4.55788101	     25.73443682	     46.10939825	      0.00000000	      0.00000000	     17.28002204	    -19.13512536	    -14.28814678	     80.70914290	     47.82956359	      0.00000000	      0.00000000
